<mxfile host="65bd71144e">
    <diagram id="AoJzINJZvZ3uSPx44uJf" name="Page-1">
        <mxGraphModel dx="3535" dy="1975" grid="1" gridSize="10" guides="1" tooltips="1" connect="1" arrows="1" fold="1" page="1" pageScale="1" pageWidth="850" pageHeight="1100" math="0" shadow="0">
            <root>
                <mxCell id="0"/>
                <mxCell id="1" parent="0"/>
                <mxCell id="234" value="" style="rounded=0;whiteSpace=wrap;html=1;fontSize=7;strokeColor=#82b366;fillColor=#d5e8d4;" parent="1" vertex="1">
                    <mxGeometry x="-500" y="760" width="140" height="430" as="geometry"/>
                </mxCell>
                <mxCell id="146" value="" style="verticalLabelPosition=bottom;html=1;verticalAlign=top;align=center;strokeColor=none;fillColor=#00BEF2;shape=mxgraph.azure.virtual_network;pointerEvents=1;fontFamily=Helvetica;fontSize=12;fontColor=default;aspect=fixed;" parent="1" vertex="1">
                    <mxGeometry x="-210" y="909.998064516129" width="36.35999999999999" height="19.999999999999996" as="geometry"/>
                </mxCell>
                <mxCell id="132" value="Hub&amp;nbsp;VNET" style="text;html=1;resizable=0;autosize=1;align=center;verticalAlign=middle;points=[];fillColor=none;strokeColor=none;rounded=0;fontFamily=Helvetica;fontSize=12;fontColor=default;" parent="1" vertex="1">
                    <mxGeometry x="-320" y="730" width="70" height="20" as="geometry"/>
                </mxCell>
                <mxCell id="147" value="" style="group;strokeColor=#0177D3;container=0;dashed=1;" parent="1" vertex="1" connectable="0">
                    <mxGeometry x="-320" y="760" width="130" height="160" as="geometry"/>
                </mxCell>
                <mxCell id="12" value="" style="rounded=0;whiteSpace=wrap;html=1;fontSize=7;strokeColor=#F2F2F2;fillColor=#F2F2F2;" parent="1" vertex="1">
                    <mxGeometry x="-310" y="770" width="110" height="140" as="geometry"/>
                </mxCell>
                <mxCell id="215" value="" style="group" parent="1" vertex="1" connectable="0">
                    <mxGeometry x="-300" y="805.41" width="90" height="70" as="geometry"/>
                </mxCell>
                <mxCell id="214" value="jumpBox(dev)" style="text;html=1;resizable=0;autosize=1;align=center;verticalAlign=middle;points=[];fillColor=none;strokeColor=none;rounded=0;fontFamily=Helvetica;fontSize=12;fontColor=default;" parent="215" vertex="1">
                    <mxGeometry y="50" width="90" height="20" as="geometry"/>
                </mxCell>
                <mxCell id="228" value="" style="group" parent="1" vertex="1" connectable="0">
                    <mxGeometry x="-260" y="960" width="60" height="65" as="geometry"/>
                </mxCell>
                <mxCell id="226" value="" style="aspect=fixed;html=1;points=[];align=center;image;fontSize=12;image=img/lib/azure2/networking/Private_Endpoint.svg;" parent="228" vertex="1">
                    <mxGeometry x="11.420000000000002" width="39.27" height="36" as="geometry"/>
                </mxCell>
                <mxCell id="227" value="Private&amp;nbsp;&lt;br&gt;Endpoint" style="text;html=1;resizable=0;autosize=1;align=center;verticalAlign=middle;points=[];fillColor=none;strokeColor=none;rounded=0;fontFamily=Helvetica;fontSize=12;fontColor=default;" parent="228" vertex="1">
                    <mxGeometry y="35" width="60" height="30" as="geometry"/>
                </mxCell>
                <mxCell id="231" value="" style="group" parent="1" vertex="1" connectable="0">
                    <mxGeometry x="-467" y="1049.0900000000001" width="70" height="80.5" as="geometry"/>
                </mxCell>
                <mxCell id="199" value="Container &lt;br&gt;Registry" style="text;html=1;resizable=0;autosize=1;align=center;verticalAlign=middle;points=[];fillColor=none;strokeColor=none;rounded=0;fontFamily=Helvetica;fontSize=12;fontColor=default;" parent="231" vertex="1">
                    <mxGeometry y="50.5" width="70" height="30" as="geometry"/>
                </mxCell>
                <mxCell id="197" value="" style="aspect=fixed;html=1;points=[];align=center;image;fontSize=12;image=img/lib/azure2/containers/Container_Registries.svg;" parent="231" vertex="1">
                    <mxGeometry x="6.1299999999999955" width="55.74" height="50" as="geometry"/>
                </mxCell>
                <mxCell id="239" value="" style="group" parent="1" vertex="1" connectable="0">
                    <mxGeometry x="-472.65" y="922" width="80" height="70" as="geometry"/>
                </mxCell>
                <mxCell id="218" value="" style="aspect=fixed;html=1;points=[];align=center;image;fontSize=12;image=img/lib/azure2/networking/DNS_Zones.svg;" parent="239" vertex="1">
                    <mxGeometry x="20" width="40" height="40" as="geometry"/>
                </mxCell>
                <mxCell id="219" value="Private DNS &lt;br&gt;Zone" style="text;html=1;resizable=0;autosize=1;align=center;verticalAlign=middle;points=[];fillColor=none;strokeColor=none;rounded=0;fontFamily=Helvetica;fontSize=12;fontColor=default;" parent="239" vertex="1">
                    <mxGeometry y="40" width="80" height="30" as="geometry"/>
                </mxCell>
                <mxCell id="254" value="" style="rounded=0;whiteSpace=wrap;html=1;fontSize=7;strokeColor=#6c8ebf;fillColor=#dae8fc;" parent="1" vertex="1">
                    <mxGeometry x="-320" y="1060" width="206.36" height="130" as="geometry"/>
                </mxCell>
                <mxCell id="255" value="Regional Azure Services" style="text;html=1;resizable=0;autosize=1;align=center;verticalAlign=middle;points=[];fillColor=none;strokeColor=none;rounded=0;fontFamily=Helvetica;fontSize=12;fontColor=default;" parent="1" vertex="1">
                    <mxGeometry x="-326.36" y="1200" width="150" height="20" as="geometry"/>
                </mxCell>
                <mxCell id="268" value="Global Services" style="text;html=1;resizable=0;autosize=1;align=center;verticalAlign=middle;points=[];fillColor=none;strokeColor=none;rounded=0;fontFamily=Helvetica;fontSize=12;fontColor=default;" parent="1" vertex="1">
                    <mxGeometry x="-505.31" y="730" width="100" height="20" as="geometry"/>
                </mxCell>
                <mxCell id="270" value="" style="group" parent="1" vertex="1" connectable="0">
                    <mxGeometry x="-286.36" y="1086.5" width="70" height="80.5" as="geometry"/>
                </mxCell>
                <mxCell id="271" value="Container &lt;br&gt;Registry" style="text;html=1;resizable=0;autosize=1;align=center;verticalAlign=middle;points=[];fillColor=none;strokeColor=none;rounded=0;fontFamily=Helvetica;fontSize=12;fontColor=default;" parent="270" vertex="1">
                    <mxGeometry y="50.5" width="70" height="30" as="geometry"/>
                </mxCell>
                <mxCell id="272" value="" style="aspect=fixed;html=1;points=[];align=center;image;fontSize=12;image=img/lib/azure2/containers/Container_Registries.svg;" parent="270" vertex="1">
                    <mxGeometry x="6.1299999999999955" width="55.74" height="50" as="geometry"/>
                </mxCell>
                <mxCell id="296" value="" style="shape=image;verticalLabelPosition=bottom;verticalAlign=top;imageAspect=0;aspect=fixed;image=data:image/svg+xml,PHN2ZyB4bWxucz0iaHR0cDovL3d3dy53My5vcmcvMjAwMC9zdmciIGlkPSJiNzU5NDNiYS0xYTNmLTQ4NWQtYjQ1ZC0zZmVlMDBlZDdlNWUiIHdpZHRoPSIxOCIgaGVpZ2h0PSIxOCIgdmlld0JveD0iMCAwIDE4IDE4Ij48ZGVmcz48bGluZWFyR3JhZGllbnQgaWQ9ImZlNWNlNDNmLTI4MjMtNDYxNy1iYjU0LTU3ZGY5ZTc3ODM3MiIgeDE9IjkuMDEiIHkxPSIwLjc1IiB4Mj0iOS4wMSIgeTI9IjE3LjI1IiBncmFkaWVudFVuaXRzPSJ1c2VyU3BhY2VPblVzZSI+PHN0b3Agb2Zmc2V0PSIwIiBzdG9wLWNvbG9yPSIjNWVhMGVmIi8+PHN0b3Agb2Zmc2V0PSIwLjE4IiBzdG9wLWNvbG9yPSIjNTU5Y2VjIi8+PHN0b3Agb2Zmc2V0PSIwLjQ3IiBzdG9wLWNvbG9yPSIjM2M5MWU1Ii8+PHN0b3Agb2Zmc2V0PSIwLjg0IiBzdG9wLWNvbG9yPSIjMTM4MGRhIi8+PHN0b3Agb2Zmc2V0PSIxIiBzdG9wLWNvbG9yPSIjMDA3OGQ0Ii8+PC9saW5lYXJHcmFkaWVudD48L2RlZnM+PHRpdGxlPkljb24tbmV0d29ya2luZy02NzwvdGl0bGU+PHBhdGggZD0iTTE2LjM2LDguNGMwLDQuODQtNS44NSw4Ljc0LTcuMTIsOS41M2EuNDYuNDYsMCwwLDEtLjQ4LDBjLTEuMjctLjc5LTcuMTItNC42OS03LjEyLTkuNTNWMi41OGEuNDYuNDYsMCwwLDEsLjQ1LS40NkM2LjY0LDIsNS41OSwwLDksMHMyLjM2LDIsNi45MSwyLjEyYS40Ni40NiwwLDAsMSwuNDUuNDZaIiBmaWxsPSIjMDA3OGQ0Ii8+PHBhdGggZD0iTTE1Ljc1LDguNDVjMCw0LjQ0LTUuMzYsOC02LjUzLDguNzRhLjQzLjQzLDAsMCwxLS40NCwwYy0xLjE3LS43Mi02LjUzLTQuMy02LjUzLTguNzRWMy4xMWEuNDIuNDIsMCwwLDEsLjQxLS40MkM2LjgzLDIuNTgsNS44Ny43NSw5LC43NXMyLjE3LDEuODMsNi4zNCwxLjk0YS40Mi40MiwwLDAsMSwuNDEuNDJaIiBmaWxsPSIjNmJiOWYyIi8+PHBhdGggZD0iTTksOVYuNzVjMy4xMywwLDIuMTcsMS44Myw2LjM0LDEuOTRhLjQzLjQzLDAsMCwxLC40MS40M1Y4LjQ2YTQuODksNC44OSwwLDAsMSwwLC41NFpNOSw5SDIuMjhjLjQsNC4xOCw1LjM4LDcuNSw2LjUsOC4xOWEuMzkuMzksMCwwLDAsLjE4LjA2SDlaIiBmaWxsPSJ1cmwoI2ZlNWNlNDNmLTI4MjMtNDYxNy1iYjU0LTU3ZGY5ZTc3ODM3MikiLz48cGF0aCBkPSJNMi42NiwyLjY5QzYuODMsMi41OCw1Ljg3Ljc1LDksLjc1VjlIMi4yOGE0Ljg5LDQuODksMCwwLDEsMC0uNTRWMy4xMkEuNDMuNDMsMCwwLDEsMi42NiwyLjY5WiIgZmlsbD0iIzUwZTZmZiIvPjxwYXRoIGQ9Ik0xNS43Miw5SDl2OC4yNUg5YS4zOS4zOSwwLDAsMCwuMTgtLjA2QzEwLjM0LDE2LjUsMTUuMzIsMTMuMTgsMTUuNzIsOVoiIGZpbGw9IiM1MGU2ZmYiLz48L3N2Zz4=" parent="1" vertex="1">
                    <mxGeometry x="-306" y="885" width="20" height="20" as="geometry"/>
                </mxCell>
                <mxCell id="303" value="" style="group" parent="1" vertex="1" connectable="0">
                    <mxGeometry x="-210" y="1095" width="70" height="60.000000000000114" as="geometry"/>
                </mxCell>
                <mxCell id="266" value="" style="aspect=fixed;html=1;points=[];align=center;image;fontSize=12;image=img/lib/azure2/security/Key_Vaults.svg;" parent="303" vertex="1">
                    <mxGeometry x="15" width="40" height="40" as="geometry"/>
                </mxCell>
                <mxCell id="267" value="Key Vault" style="text;html=1;resizable=0;autosize=1;align=center;verticalAlign=middle;points=[];fillColor=none;strokeColor=none;rounded=0;fontFamily=Helvetica;fontSize=12;fontColor=default;" parent="303" vertex="1">
                    <mxGeometry y="40.000000000000114" width="70" height="20" as="geometry"/>
                </mxCell>
                <mxCell id="308" value="" style="group" parent="1" vertex="1" connectable="0">
                    <mxGeometry x="-460" y="790" width="54.68999999999994" height="70" as="geometry"/>
                </mxCell>
                <mxCell id="306" value="" style="aspect=fixed;html=1;points=[];align=center;image;fontSize=12;image=img/lib/azure2/identity/Azure_Active_Directory.svg;dashed=1;strokeColor=default;" parent="308" vertex="1">
                    <mxGeometry width="54.69" height="50" as="geometry"/>
                </mxCell>
                <mxCell id="307" value="AAD" style="text;html=1;resizable=0;autosize=1;align=center;verticalAlign=middle;points=[];fillColor=none;strokeColor=none;rounded=0;fontFamily=Helvetica;fontSize=12;fontColor=default;" parent="308" vertex="1">
                    <mxGeometry x="7.339999999999918" y="50" width="40" height="20" as="geometry"/>
                </mxCell>
                <mxCell id="316" value="" style="rounded=0;whiteSpace=wrap;html=1;fontSize=7;strokeColor=#d6b656;fillColor=#fff2cc;" parent="1" vertex="1">
                    <mxGeometry x="-59.995000000000005" y="999.9979211469533" width="211.255" height="128.3820788530466" as="geometry"/>
                </mxCell>
                <mxCell id="312" value="" style="sketch=0;aspect=fixed;html=1;points=[];align=center;image;fontSize=12;image=img/lib/mscae/App_Services.svg;dashed=1;strokeColor=default;" parent="1" vertex="1">
                    <mxGeometry x="-31.189999999999998" y="1051.3600000000001" width="45.14137793707687" height="45.14137793707687" as="geometry"/>
                </mxCell>
                <mxCell id="313" value="Container Apps Environment" style="text;html=1;resizable=0;autosize=1;align=center;verticalAlign=middle;points=[];fillColor=none;strokeColor=none;rounded=0;fontFamily=Helvetica;fontSize=12;fontColor=default;" parent="1" vertex="1">
                    <mxGeometry x="-60" y="980.0013779370769" width="170" height="20" as="geometry"/>
                </mxCell>
                <mxCell id="317" value="Container Apps" style="text;html=1;resizable=0;autosize=1;align=center;verticalAlign=middle;points=[];fillColor=none;strokeColor=none;rounded=0;fontFamily=Helvetica;fontSize=12;fontColor=default;" parent="1" vertex="1">
                    <mxGeometry x="-57.55000000000001" y="1005.0013779370769" width="100" height="20" as="geometry"/>
                </mxCell>
                <mxCell id="319" value="" style="edgeStyle=none;html=1;" edge="1" parent="1" source="272" target="227">
                    <mxGeometry relative="1" as="geometry"/>
                </mxCell>
                <mxCell id="320" value="" style="edgeStyle=none;html=1;" edge="1" parent="1" source="266" target="227">
                    <mxGeometry relative="1" as="geometry"/>
                </mxCell>
                <mxCell id="321" value="" style="edgeStyle=none;html=1;" edge="1" parent="1" source="226">
                    <mxGeometry relative="1" as="geometry">
                        <mxPoint x="-220" y="920" as="targetPoint"/>
                        <Array as="points">
                            <mxPoint x="-220" y="920"/>
                        </Array>
                    </mxGeometry>
                </mxCell>
                <mxCell id="322" value="" style="sketch=0;aspect=fixed;html=1;points=[];align=center;image;fontSize=12;image=img/lib/mscae/Virtual_Machine.svg;" vertex="1" parent="1">
                    <mxGeometry x="-280" y="802" width="50" height="46" as="geometry"/>
                </mxCell>
            </root>
        </mxGraphModel>
    </diagram>
    <diagram id="ZfLck6dakhjFIWK1qQtJ" name="Page-2">
        <mxGraphModel dx="1924" dy="790" grid="1" gridSize="10" guides="1" tooltips="1" connect="1" arrows="1" fold="1" page="1" pageScale="1" pageWidth="850" pageHeight="1100" math="0" shadow="0">
            <root>
                <mxCell id="PRm1ks4BzBN02BRF5o8O-0"/>
                <mxCell id="PRm1ks4BzBN02BRF5o8O-1" parent="PRm1ks4BzBN02BRF5o8O-0"/>
                <mxCell id="PRm1ks4BzBN02BRF5o8O-3" value="" style="whiteSpace=wrap;html=1;" parent="PRm1ks4BzBN02BRF5o8O-1" vertex="1">
                    <mxGeometry x="21.67" y="190" width="58.33" height="600" as="geometry"/>
                </mxCell>
                <mxCell id="PRm1ks4BzBN02BRF5o8O-2" value="" style="aspect=fixed;html=1;points=[];align=center;image;fontSize=12;image=img/lib/azure2/app_services/API_Management_Services.svg;" parent="PRm1ks4BzBN02BRF5o8O-1" vertex="1">
                    <mxGeometry x="29.17" y="470" width="43.33" height="40" as="geometry"/>
                </mxCell>
                <mxCell id="PRm1ks4BzBN02BRF5o8O-4" value="API Gateway" style="text;html=1;resizable=0;autosize=1;align=center;verticalAlign=middle;points=[];fillColor=none;strokeColor=none;rounded=0;" parent="PRm1ks4BzBN02BRF5o8O-1" vertex="1">
                    <mxGeometry x="5.839999999999975" y="160" width="90" height="20" as="geometry"/>
                </mxCell>
                <mxCell id="PRm1ks4BzBN02BRF5o8O-6" style="edgeStyle=none;html=1;" parent="PRm1ks4BzBN02BRF5o8O-1" source="PRm1ks4BzBN02BRF5o8O-5" edge="1">
                    <mxGeometry relative="1" as="geometry">
                        <mxPoint x="20" y="475" as="targetPoint"/>
                    </mxGeometry>
                </mxCell>
                <mxCell id="PRm1ks4BzBN02BRF5o8O-5" value="" style="sketch=0;pointerEvents=1;shadow=0;dashed=0;html=1;strokeColor=none;fillColor=#505050;labelPosition=center;verticalLabelPosition=bottom;verticalAlign=top;outlineConnect=0;align=center;shape=mxgraph.office.concepts.website;" parent="PRm1ks4BzBN02BRF5o8O-1" vertex="1">
                    <mxGeometry x="-250" y="450" width="59" height="49" as="geometry"/>
                </mxCell>
                <mxCell id="PRm1ks4BzBN02BRF5o8O-7" value="" style="aspect=fixed;html=1;points=[];align=center;image;fontSize=12;image=img/lib/azure2/identity/Azure_AD_B2C.svg;" parent="PRm1ks4BzBN02BRF5o8O-1" vertex="1">
                    <mxGeometry x="22" y="840" width="53.91" height="50" as="geometry"/>
                </mxCell>
            </root>
        </mxGraphModel>
    </diagram>
</mxfile>